<?xml version="1.0" standalone="no"?>
<!DOCTYPE svg PUBLIC "-//W3C//DTD SVG 20010904//EN"
 "http://www.w3.org/TR/2001/REC-SVG-20010904/DTD/svg10.dtd">
<svg version="1.0" xmlns="http://www.w3.org/2000/svg"
 width="256.000000pt" height="256.000000pt" viewBox="0 0 256.000000 256.000000"
 preserveAspectRatio="xMidYMid meet">
<metadata>
Created by potrace 1.11, written by Peter Selinger 2001-2013
</metadata>
<g transform="translate(0.000000,256.000000) scale(0.100000,-0.100000)"
fill="#000000" stroke="none">
<path d="M1134 2542 c-18 -11 -53 -86 -69 -147 -18 -71 -19 -72 -58 -80 -96
-20 -250 -143 -313 -251 -43 -73 -83 -181 -110 -293 -42 -180 -75 -268 -159
-436 -72 -143 -115 -257 -131 -352 -2 -13 -7 -35 -10 -50 -3 -16 -8 -89 -9
-164 -5 -204 30 -343 121 -481 86 -129 243 -230 392 -254 21 -3 40 -8 44 -10
23 -14 512 -22 628 -10 299 30 506 112 647 255 125 127 184 290 178 494 -2 61
-6 123 -9 137 -3 14 -8 39 -12 55 -13 69 -67 216 -109 295 -100 191 -158 314
-229 490 -152 378 -162 397 -237 470 -99 96 -250 146 -416 137 l-91 -5 8 26
c4 15 15 44 24 66 21 50 20 79 -2 99 -19 18 -59 22 -78 9z"/>
</g>
</svg>
